<svg xmlns="http://www.w3.org/2000/svg" width="20" height="17" viewBox="0 0 20 17" fill="none">
  <path fill-rule="evenodd" clip-rule="evenodd" d="M3.43509 12.9625C3.49901 12.8971 3.57624 12.8446 3.66215 12.8081C3.74806 12.7716 3.84089 12.7518 3.93509 12.75H19.6448C19.7114 12.7509 19.776 12.7699 19.8313 12.8047C19.8867 12.8396 19.9302 12.8887 19.9566 12.9464C19.983 13.004 19.9913 13.0676 19.9802 13.1295C19.9693 13.1914 19.9397 13.249 19.8949 13.2954L16.5649 16.7875C16.501 16.8529 16.4238 16.9054 16.3378 16.9419C16.2519 16.9784 16.1591 16.9982 16.0649 17H0.345136C0.278668 16.9991 0.213884 16.9801 0.158578 16.9453C0.103274 16.9104 0.0598028 16.8613 0.0333938 16.8036C0.0069848 16.746 -0.00123697 16.6824 0.00971662 16.6205C0.0206702 16.5586 0.0503342 16.501 0.0951404 16.4546L3.43509 12.9625ZM19.9099 10.0678C19.9547 10.1141 19.9843 10.1718 19.9952 10.2337C20.0063 10.2956 19.998 10.3592 19.9716 10.4168C19.9452 10.4745 19.9017 10.5236 19.8463 10.5585C19.791 10.5933 19.7264 10.6123 19.6598 10.6132L3.94508 10.625C3.8509 10.6232 3.75805 10.6034 3.67214 10.5669C3.58623 10.5304 3.509 10.4779 3.4451 10.4125L0.0901398 6.93223C0.0453355 6.88585 0.0156715 6.82823 0.00471607 6.7663C-0.00623752 6.70438 0.00198425 6.64078 0.0283932 6.58316C0.0548022 6.52554 0.0982735 6.47636 0.15358 6.44153C0.208884 6.4067 0.273668 6.3877 0.340137 6.38681L16.0549 6.375C16.1491 6.37682 16.2419 6.39657 16.3278 6.43308C16.4138 6.4696 16.491 6.52212 16.5549 6.5875L19.9099 10.0678ZM3.43509 0.2125C3.49901 0.147124 3.57624 0.0946057 3.66215 0.0580915C3.74806 0.0215774 3.84089 0.00181889 3.93509 0L19.6549 0.0118056C19.7213 0.0126897 19.7862 0.0316921 19.8415 0.0665268C19.8968 0.101361 19.9403 0.150545 19.9665 0.208161C19.993 0.265779 20.0012 0.329375 19.9903 0.391299C19.9793 0.453225 19.9497 0.510843 19.9048 0.557223L16.5649 4.0375C16.501 4.10288 16.4238 4.1554 16.3378 4.19192C16.2519 4.22843 16.1591 4.24818 16.0649 4.25H0.345136C0.278668 4.24911 0.213884 4.23011 0.158578 4.19528C0.103274 4.16045 0.0598028 4.11126 0.0333938 4.05365C0.0069848 3.99603 -0.00123697 3.93244 0.00971662 3.87051C0.0206702 3.80858 0.0503342 3.75096 0.0951404 3.70458L3.43509 0.2125Z" fill="white"/>
</svg>