<svg width="60" height="60" viewBox="0 0 60 60" fill="none" xmlns="http://www.w3.org/2000/svg">
<path d="M20.7055 1.57898L14.2291 41.0527H4.81922L9.84798 10.4837H9.6194L0 15.8805L1.33338 7.63109L11.9623 1.57898H20.7055Z" fill="#FF0000"/>
<path d="M47.3684 1.57898L40.892 41.0527H31.4821L36.5109 10.4837H36.2823L26.6629 15.8805L27.9963 7.63109L38.6252 1.57898H47.3684Z" fill="#FF0000"/>
<path d="M46.9787 41.0526C44.9805 41.0526 43.1624 40.7398 41.5245 40.1141C39.9193 39.4571 38.6418 38.5655 37.6918 37.4392C36.7745 36.2817 36.3159 34.9678 36.3159 33.4974C36.3159 33.2784 36.3487 32.9186 36.4142 32.4181H43.0969C42.9986 33.513 43.3426 34.4046 44.1288 35.0929C44.915 35.7499 46.0287 36.0784 47.4701 36.0784C48.7804 36.0784 49.8614 35.8594 50.7132 35.4214C51.5976 34.9521 52.0399 34.2795 52.0399 33.4035C52.0399 32.6214 51.6304 31.9957 50.8114 31.5265C50.0252 31.0572 48.764 30.5254 47.0279 29.931C45.2917 29.3366 43.8503 28.7578 42.7038 28.1947C41.5572 27.6316 40.5745 26.8494 39.7555 25.8483C38.9366 24.8472 38.5271 23.5802 38.5271 22.0473C38.5271 20.5143 38.9857 19.1535 39.9029 17.9646C40.8529 16.7758 42.1633 15.8529 43.8339 15.196C45.5046 14.539 47.421 14.2105 49.583 14.2105C51.6468 14.2105 53.4649 14.539 55.0372 15.196C56.6096 15.8529 57.8217 16.7758 58.6734 17.9646C59.5579 19.1222 60.0001 20.4518 60.0001 21.9534C60.0001 22.3288 59.9837 22.6104 59.951 22.7981H53.5631C53.6614 21.7031 53.3338 20.8272 52.5804 20.1702C51.8269 19.5132 50.7295 19.1847 49.2882 19.1847C48.1089 19.1847 47.1425 19.435 46.3891 19.9356C45.6356 20.4048 45.2589 21.0462 45.2589 21.8596C45.2589 22.673 45.6848 23.3456 46.5365 23.8774C47.3882 24.378 48.6985 24.9411 50.4675 25.5668C52.2364 26.2238 53.645 26.8338 54.6933 27.3969C55.7743 27.9288 56.7079 28.6796 57.4941 29.6494C58.2803 30.5879 58.6734 31.7768 58.6734 33.2158C58.6734 34.8113 58.1657 36.2035 57.1502 37.3923C56.1346 38.5811 54.7424 39.4884 52.9735 40.1141C51.2045 40.7398 49.2063 41.0526 46.9787 41.0526Z" fill="white"/>
<path fill-rule="evenodd" clip-rule="evenodd" d="M44.7811 53.2368C44.781 53.9845 44.64 54.6774 44.3562 55.3132C44.0739 55.9456 43.6803 56.495 43.1749 56.9582C42.6697 57.4212 42.0711 57.7821 41.3813 58.0408C40.6939 58.2951 39.9454 58.4209 39.1417 58.421H35.9717C35.1679 58.421 34.4175 58.2959 33.7246 58.0419L33.7221 58.0408C33.0321 57.7821 32.4325 57.4213 31.9272 56.9582C31.4225 56.4955 31.0266 55.9469 30.7385 55.3155L30.7372 55.3132C30.4535 54.6775 30.3137 53.9844 30.3136 53.2368V50.9748C30.3136 50.2321 30.4534 49.541 30.7372 48.9052C31.0254 48.2679 31.4225 47.7182 31.9284 47.2602C32.4336 46.7975 33.0325 46.4373 33.7221 46.1788C34.4156 45.9187 35.167 45.7894 35.9717 45.7894H39.1417C39.946 45.7895 40.6935 45.9186 41.3813 46.1788L41.6347 46.2801C42.2182 46.5286 42.7316 46.8554 43.1737 47.2602L43.3588 47.4367C43.7772 47.8577 44.1105 48.348 44.3575 48.9063C44.6412 49.542 44.7811 50.2322 44.7811 50.9748V53.2368ZM41.7241 49.915C41.8602 50.2244 41.9303 50.5766 41.9303 50.9748V53.2368C41.9302 53.6347 41.8595 53.9901 41.7229 54.3057V54.308C41.5913 54.6194 41.4033 54.8851 41.1602 55.1083C40.9771 55.2723 40.7658 55.4112 40.5242 55.5238L40.272 55.6274C39.9334 55.7472 39.5515 55.8095 39.123 55.8095H35.9717C35.5424 55.8095 35.1549 55.747 34.809 55.6263C34.4685 55.4998 34.1792 55.3273 33.9358 55.1094C33.6923 54.8862 33.5009 54.6206 33.3631 54.3091C33.2316 53.9926 33.1632 53.6358 33.1631 53.2368V50.9748C33.1631 50.576 33.2299 50.2227 33.3606 49.9127L33.3619 49.9138C33.4998 49.5952 33.6906 49.3288 33.9333 49.1113L33.9358 49.109C34.1797 48.8855 34.4722 48.713 34.8127 48.5921C35.1577 48.4667 35.5436 48.402 35.9717 48.402H39.1417C39.5629 48.4021 39.9412 48.466 40.2795 48.591L40.2844 48.5933C40.6306 48.7142 40.9199 48.8861 41.1564 49.1078L41.1602 49.1113C41.4021 49.328 41.5897 49.5932 41.7216 49.9104L41.7241 49.915Z" fill="white"/>
<path fill-rule="evenodd" clip-rule="evenodd" d="M28.4889 55.3132C28.7726 54.6775 28.9124 53.9844 28.9125 53.2368V50.9748C28.9125 50.3249 28.8053 49.7149 28.5883 49.1465L28.4889 48.9052C28.242 48.3475 27.9095 47.8573 27.4915 47.4367L27.3064 47.2602C26.8012 46.7975 26.2036 46.4373 25.5139 46.1788C24.826 45.9185 24.0777 45.7894 23.2731 45.7894H20.1031C19.2985 45.7894 18.5482 45.9188 17.8548 46.1788C17.1652 46.4373 16.5663 46.7975 16.0611 47.2602C15.6184 47.6609 15.2588 48.1312 14.9829 48.6696L14.8699 48.9052C14.5861 49.541 14.4451 50.2321 14.4451 50.9748V53.2368C14.4451 53.9845 14.5861 54.6774 14.8699 55.3132V55.3155C15.1581 55.9471 15.5549 56.4954 16.0599 56.9582C16.5653 57.4213 17.1647 57.7821 17.8548 58.0408L17.856 58.0419C18.5491 58.296 19.2991 58.421 20.1031 58.421H23.2731C24.077 58.421 24.8252 58.2951 25.5127 58.0408C26.2028 57.7821 26.8022 57.4213 27.3076 56.9582C27.8129 56.495 28.2066 55.9456 28.4889 55.3132ZM3.14763 50.5069C2.95782 50.3182 2.85075 50.0538 2.85075 49.6873C2.85075 49.3263 2.95795 49.0599 3.15136 48.8642C3.34575 48.6733 3.62067 48.5672 4.00969 48.5671H12.234V45.9545H4.00969C3.70314 45.9545 3.38247 45.9934 3.04826 46.0683L2.70915 46.1549C2.35635 46.2526 2.02318 46.3987 1.70921 46.5909L1.39991 46.7992C0.996968 47.0972 0.66332 47.4849 0.397491 47.9546C0.128234 48.4361 0 49.0173 0 49.6873C0 50.3574 0.128868 50.9404 0.397491 51.4267V51.429C0.66351 51.8992 0.9978 52.2864 1.40115 52.5845L1.4024 52.5856C1.80366 52.8774 2.23983 53.0922 2.70915 53.2277L2.71163 53.2288C3.16878 53.3551 3.6021 53.42 4.00969 53.4201H9.39569C9.58318 53.4201 9.74486 53.4482 9.88385 53.5009L9.88634 53.502C10.0338 53.5561 10.1509 53.6302 10.2428 53.7229L10.2466 53.7274C10.3473 53.8241 10.4255 53.9393 10.4801 54.0758C10.5346 54.2121 10.5633 54.3661 10.5633 54.5402C10.5633 54.901 10.4539 55.1633 10.2565 55.353L10.254 55.3553C10.0674 55.5388 9.79384 55.6444 9.39569 55.6445H0.108068V58.2559H9.39569C9.66787 58.2559 9.95326 58.2262 10.2503 58.1683L10.249 58.1671C10.5561 58.1085 10.857 58.0198 11.1496 57.8973C11.4443 57.774 11.7271 57.6152 11.9993 57.4238C12.2799 57.2264 12.5243 56.9881 12.7309 56.71C12.9387 56.4302 13.1009 56.1109 13.2215 55.756C13.3504 55.3887 13.4141 54.9828 13.4141 54.5402C13.4141 54.0979 13.3545 53.6944 13.2315 53.3324C13.1107 52.9772 12.945 52.6584 12.7309 52.3784C12.525 52.1014 12.2844 51.8631 12.0104 51.6658C11.744 51.4685 11.4598 51.3051 11.1596 51.1763C10.8672 51.0483 10.5686 50.954 10.2664 50.8951C9.972 50.8323 9.68934 50.7974 9.41929 50.7915H4.00969C3.66602 50.7915 3.41139 50.7123 3.2234 50.5707L3.14763 50.5069ZM26.063 50.9748C26.063 50.5765 25.9917 50.2245 25.8555 49.915L25.8543 49.9104C25.7224 49.5931 25.5347 49.328 25.2928 49.1113L25.2891 49.1078C25.0525 48.8861 24.7622 48.7142 24.4159 48.5933L24.4121 48.591C24.0736 48.4659 23.6947 48.402 23.2731 48.402H20.1031C19.6751 48.402 19.2904 48.4667 18.9454 48.5921H18.9429C18.6022 48.713 18.3112 48.8854 18.0672 49.109L18.066 49.1113C17.8239 49.3282 17.6312 49.5929 17.4933 49.9104L17.4946 49.9115C17.3635 50.2219 17.2958 50.5754 17.2958 50.9748V53.2368C17.2959 53.6341 17.3629 53.9891 17.4933 54.3046L17.6064 54.5311C17.7295 54.7485 17.8831 54.9404 18.066 55.1083L18.2585 55.2642C18.4589 55.4106 18.6862 55.5314 18.9417 55.6263C19.2875 55.747 19.6738 55.8095 20.1031 55.8095H23.2557C23.6837 55.8095 24.0652 55.7471 24.4034 55.6274C24.7519 55.5007 25.0465 55.3275 25.2903 55.1094C25.5341 54.886 25.7224 54.62 25.8543 54.308L25.8555 54.3057C25.9922 53.9901 26.0629 53.6347 26.063 53.2368V50.9748Z" fill="white"/>
<path d="M46.5859 47.1043C46.5859 46.8386 46.6673 46.5941 46.8294 46.378L46.8306 46.3768C46.9935 46.1627 47.202 45.9992 47.4554 45.893L47.4654 45.8896C47.7314 45.7907 48.0081 45.7676 48.2889 45.819L48.2902 45.8179L48.2926 45.819H48.2964L48.2951 45.8202C48.5806 45.868 48.8284 45.9894 49.0317 46.1822L49.033 46.1833L57.1505 53.9437V45.9545H60V57.1073C59.9999 57.2899 59.9604 57.4632 59.8807 57.6253C59.8083 57.7847 59.7071 57.9266 59.5752 58.0476C59.4477 58.1644 59.2953 58.2551 59.123 58.3208C58.9469 58.388 58.7607 58.421 58.5665 58.421C58.3901 58.421 58.2134 58.391 58.0386 58.3333L58.0361 58.3322C57.8533 58.2694 57.6915 58.1687 57.5529 58.0351L49.4367 50.2679V58.2559H46.5859V47.1043Z" fill="white"/>
</svg>
