<svg width="211" height="70" viewBox="0 0 211 70" fill="none" xmlns="http://www.w3.org/2000/svg">
<g clip-path="url(#clip0_1315_315)">
<mask id="mask0_1315_315" style="mask-type:alpha" maskUnits="userSpaceOnUse" x="0" y="0" width="211" height="70">
<rect width="211" height="70" rx="6" fill="white"/>
</mask>
<g mask="url(#mask0_1315_315)">
<path d="M143.183 -1.74582C142.151 -1.26713 141.552 -0.286732 141.52 0.834553L141.497 22.748C141.487 25.2142 140.259 27.5423 138.182 28.9064L120.384 40.7265C119.47 41.3515 119.015 42.3168 119.125 43.42C119.235 44.5241 119.943 45.4014 120.971 45.7795L141.903 53.8046C144.099 54.6453 145.756 56.4881 146.403 58.75L152.533 80.6238C152.847 81.7341 153.701 82.4932 154.795 82.6887C155.889 82.8853 156.941 82.448 157.577 81.5493L169.986 64.492C171.492 62.4375 173.928 61.3076 176.469 61.4857L197.506 63.0332C198.603 63.1268 199.616 62.6067 200.174 61.645C200.731 60.6838 200.703 59.5403 200.059 58.5844L187.324 39.7749C186.016 37.8197 185.68 35.363 186.457 33.1448L193.852 11.9822C194.228 10.9544 193.974 9.86631 193.244 9.04864C192.473 8.25067 191.423 7.93453 190.374 8.2699L169.855 14.2189C167.472 14.9229 164.901 14.3562 163.012 12.7707L146.227 -1.34854C145.352 -2.04762 144.216 -2.22498 143.183 -1.74582Z" stroke="#FFD900" stroke-width="2"/>
</g>
</g>
<defs>
<clipPath id="clip0_1315_315">
<rect width="211" height="70" fill="white"/>
</clipPath>
</defs>
</svg>
