<svg width="211" height="70" viewBox="0 0 211 70" fill="none" xmlns="http://www.w3.org/2000/svg">
<mask id="mask0_581_709" style="mask-type:alpha" maskUnits="userSpaceOnUse" x="0" y="0" width="211" height="70">
<rect width="211" height="70" rx="30" fill="white"/>
</mask>
<g mask="url(#mask0_581_709)">
<g filter="url(#filter0_di_581_709)">
<path d="M143.183 -1.74591C142.151 -1.26722 141.552 -0.286823 141.52 0.834461L141.497 22.7479C141.487 25.2141 140.259 27.5422 138.182 28.9063L120.384 40.7264C119.47 41.3514 119.015 42.3167 119.125 43.4199C119.235 44.524 119.943 45.4013 120.971 45.7794L141.903 53.8045C144.099 54.6452 145.756 56.488 146.403 58.7499L152.533 80.6237C152.847 81.734 153.701 82.4931 154.795 82.6887C155.889 82.8852 156.941 82.4479 157.577 81.5492L169.986 64.4919C171.492 62.4374 173.928 61.3075 176.469 61.4856L197.506 63.0331C198.603 63.1267 199.616 62.6066 200.174 61.6449C200.731 60.6837 200.703 59.5402 200.059 58.5843L187.324 39.7748C186.016 37.8196 185.68 35.3629 186.457 33.1447L193.852 11.9822C194.228 10.9543 193.974 9.86622 193.244 9.04855C192.473 8.25058 191.423 7.93443 190.374 8.26981L169.855 14.2189C167.472 14.9228 164.901 14.3561 163.012 12.7707L146.227 -1.34863C145.352 -2.04772 144.216 -2.22507 143.183 -1.74591Z" fill="#FFD900" fill-opacity="0.2" shape-rendering="crispEdges"/>
<path d="M143.183 -1.74591C142.151 -1.26722 141.552 -0.286823 141.52 0.834461L141.497 22.7479C141.487 25.2141 140.259 27.5422 138.182 28.9063L120.384 40.7264C119.47 41.3514 119.015 42.3167 119.125 43.4199C119.235 44.524 119.943 45.4013 120.971 45.7794L141.903 53.8045C144.099 54.6452 145.756 56.488 146.403 58.7499L152.533 80.6237C152.847 81.734 153.701 82.4931 154.795 82.6887C155.889 82.8852 156.941 82.4479 157.577 81.5492L169.986 64.4919C171.492 62.4374 173.928 61.3075 176.469 61.4856L197.506 63.0331C198.603 63.1267 199.616 62.6066 200.174 61.6449C200.731 60.6837 200.703 59.5402 200.059 58.5843L187.324 39.7748C186.016 37.8196 185.68 35.3629 186.457 33.1447L193.852 11.9822C194.228 10.9543 193.974 9.86622 193.244 9.04855C192.473 8.25058 191.423 7.93443 190.374 8.26981L169.855 14.2189C167.472 14.9228 164.901 14.3561 163.012 12.7707L146.227 -1.34863C145.352 -2.04772 144.216 -2.22507 143.183 -1.74591Z" fill="#FFD900" fill-opacity="0.2" shape-rendering="crispEdges"/>
<path d="M143.183 -1.74591C142.151 -1.26722 141.552 -0.286823 141.52 0.834461L141.497 22.7479C141.487 25.2141 140.259 27.5422 138.182 28.9063L120.384 40.7264C119.47 41.3514 119.015 42.3167 119.125 43.4199C119.235 44.524 119.943 45.4013 120.971 45.7794L141.903 53.8045C144.099 54.6452 145.756 56.488 146.403 58.7499L152.533 80.6237C152.847 81.734 153.701 82.4931 154.795 82.6887C155.889 82.8852 156.941 82.4479 157.577 81.5492L169.986 64.4919C171.492 62.4374 173.928 61.3075 176.469 61.4856L197.506 63.0331C198.603 63.1267 199.616 62.6066 200.174 61.6449C200.731 60.6837 200.703 59.5402 200.059 58.5843L187.324 39.7748C186.016 37.8196 185.68 35.3629 186.457 33.1447L193.852 11.9822C194.228 10.9543 193.974 9.86622 193.244 9.04855C192.473 8.25058 191.423 7.93443 190.374 8.26981L169.855 14.2189C167.472 14.9228 164.901 14.3561 163.012 12.7707L146.227 -1.34863C145.352 -2.04772 144.216 -2.22507 143.183 -1.74591Z" stroke="#FFD900" stroke-width="2" shape-rendering="crispEdges"/>
<path d="M143.183 -1.74591C142.151 -1.26722 141.552 -0.286823 141.52 0.834461L141.497 22.7479C141.487 25.2141 140.259 27.5422 138.182 28.9063L120.384 40.7264C119.47 41.3514 119.015 42.3167 119.125 43.4199C119.235 44.524 119.943 45.4013 120.971 45.7794L141.903 53.8045C144.099 54.6452 145.756 56.488 146.403 58.7499L152.533 80.6237C152.847 81.734 153.701 82.4931 154.795 82.6887C155.889 82.8852 156.941 82.4479 157.577 81.5492L169.986 64.4919C171.492 62.4374 173.928 61.3075 176.469 61.4856L197.506 63.0331C198.603 63.1267 199.616 62.6066 200.174 61.6449C200.731 60.6837 200.703 59.5402 200.059 58.5843L187.324 39.7748C186.016 37.8196 185.68 35.3629 186.457 33.1447L193.852 11.9822C194.228 10.9543 193.974 9.86622 193.244 9.04855C192.473 8.25058 191.423 7.93443 190.374 8.26981L169.855 14.2189C167.472 14.9228 164.901 14.3561 163.012 12.7707L146.227 -1.34863C145.352 -2.04772 144.216 -2.22507 143.183 -1.74591Z" stroke="#FFD900" stroke-width="2" shape-rendering="crispEdges"/>
</g>
</g>
<defs>
<filter id="filter0_di_581_709" x="106.108" y="-15.0154" width="107.46" height="110.75" filterUnits="userSpaceOnUse" color-interpolation-filters="sRGB">
<feFlood flood-opacity="0" result="BackgroundImageFix"/>
<feColorMatrix in="SourceAlpha" type="matrix" values="0 0 0 0 0 0 0 0 0 0 0 0 0 0 0 0 0 0 127 0" result="hardAlpha"/>
<feOffset/>
<feGaussianBlur stdDeviation="6"/>
<feComposite in2="hardAlpha" operator="out"/>
<feColorMatrix type="matrix" values="0 0 0 0 1 0 0 0 0 0.85098 0 0 0 0 0 0 0 0 1 0"/>
<feBlend mode="normal" in2="BackgroundImageFix" result="effect1_dropShadow_581_709"/>
<feBlend mode="normal" in="SourceGraphic" in2="effect1_dropShadow_581_709" result="shape"/>
<feColorMatrix in="SourceAlpha" type="matrix" values="0 0 0 0 0 0 0 0 0 0 0 0 0 0 0 0 0 0 127 0" result="hardAlpha"/>
<feOffset/>
<feGaussianBlur stdDeviation="8.9"/>
<feComposite in2="hardAlpha" operator="arithmetic" k2="-1" k3="1"/>
<feColorMatrix type="matrix" values="0 0 0 0 1 0 0 0 0 0.85098 0 0 0 0 0 0 0 0 1 0"/>
<feBlend mode="normal" in2="shape" result="effect2_innerShadow_581_709"/>
</filter>
</defs>
</svg>
