<svg width="104" height="104" viewBox="0 0 104 104" fill="none" xmlns="http://www.w3.org/2000/svg">
<circle cx="52" cy="52" r="51" fill="black" stroke="url(#paint0_linear_952_317)" stroke-width="2"/>
<path fill-rule="evenodd" clip-rule="evenodd" d="M33.331 65.2234C33.5128 65.0297 33.7324 64.8741 33.9767 64.7659C34.221 64.6577 34.485 64.5992 34.7529 64.5938H79.4274C79.6167 64.5964 79.8006 64.6527 79.9579 64.7559C80.1152 64.8591 80.2389 65.0049 80.3141 65.1756C80.3893 65.3463 80.4127 65.5348 80.3813 65.7183C80.3503 65.9018 80.2661 66.0725 80.1387 66.2099L70.6689 76.5578C70.4872 76.7515 70.2676 76.9072 70.0232 77.0154C69.7789 77.1236 69.5149 77.1821 69.2471 77.1875H24.544C24.355 77.1849 24.1707 77.1286 24.0135 77.0254C23.8562 76.9221 23.7326 76.7764 23.6575 76.6057C23.5824 76.4349 23.559 76.2465 23.5901 76.063C23.6213 75.8795 23.7056 75.7087 23.8331 75.5713L33.331 65.2234ZM80.1813 56.6457C80.3087 56.7831 80.393 56.9539 80.4239 57.1374C80.4554 57.3209 80.4319 57.5093 80.3567 57.68C80.2815 57.8508 80.1578 57.9965 80.0006 58.0997C79.8433 58.2029 79.6593 58.2593 79.47 58.2619L34.7813 58.2969C34.5135 58.2915 34.2495 58.233 34.0051 58.1248C33.7608 58.0166 33.5412 57.8609 33.3595 57.6672L23.8188 47.3543C23.6914 47.2169 23.6071 47.0461 23.5759 46.8626C23.5448 46.6791 23.5681 46.4907 23.6432 46.32C23.7183 46.1492 23.842 46.0035 23.9992 45.9003C24.1565 45.7971 24.3407 45.7407 24.5298 45.7381L69.2187 45.7031C69.4865 45.7085 69.7505 45.767 69.9948 45.8752C70.2391 45.9834 70.4588 46.1391 70.6405 46.3328L80.1813 56.6457ZM33.331 27.4422C33.5128 27.2485 33.7324 27.0928 33.9767 26.9846C34.221 26.8764 34.485 26.8179 34.7529 26.8125L79.4562 26.8475C79.6449 26.8501 79.8294 26.9064 79.9867 27.0096C80.144 27.1129 80.2677 27.2586 80.3423 27.4293C80.4175 27.6001 80.441 27.7885 80.41 27.972C80.3786 28.1555 80.2943 28.3262 80.1669 28.4637L70.6689 38.7766C70.4872 38.9703 70.2676 39.1259 70.0232 39.2341C69.7789 39.3423 69.5149 39.4008 69.2471 39.4062H24.544C24.355 39.4036 24.1707 39.3473 24.0135 39.2441C23.8562 39.1409 23.7326 38.9951 23.6575 38.8244C23.5824 38.6537 23.559 38.4652 23.5901 38.2817C23.6213 38.0982 23.7056 37.9275 23.8331 37.7901L33.331 27.4422Z" fill="url(#paint1_linear_952_317)"/>
<defs>
<linearGradient id="paint0_linear_952_317" x1="3.15969" y1="106.268" x2="111.096" y2="9.12707" gradientUnits="userSpaceOnUse">
<stop stop-color="#9945FF"/>
<stop offset="0.14" stop-color="#8A53F4"/>
<stop offset="0.42" stop-color="#6377D6"/>
<stop offset="0.79" stop-color="#24B0A7"/>
<stop offset="0.99" stop-color="#00D18C"/>
</linearGradient>
<linearGradient id="paint1_linear_952_317" x1="25.2905" y1="78.2859" x2="77.8558" y2="24.8737" gradientUnits="userSpaceOnUse">
<stop stop-color="#9945FF"/>
<stop offset="0.14" stop-color="#8A53F4"/>
<stop offset="0.42" stop-color="#6377D6"/>
<stop offset="0.79" stop-color="#24B0A7"/>
<stop offset="0.99" stop-color="#00D18C"/>
<stop offset="1" stop-color="#00D18C"/>
</linearGradient>
</defs>
</svg>
